# xmcd
#
# Track frame offsets:
#	150
#	17771
#	34945
#	49580
#	64619
#	84330
#	101284
#	117711
#	136229
#	150566
#	169979
#	183421
#
# Disc length: 2710 seconds
#
# Revision: 0
# Processed by: cddbd v1.5.1PL0 Copyright (c) Steve Scherf et al.
# Submitted via: dBpowerAMP V4.0
#
DISCID=960a940c
DTITLE=Rascal Flatts - Feels Like Today
DYEAR=1900
DGENRE=Country
TTITLE0=Where You Are
TTITLE1=Bless The Broken Road
TTITLE2=Then I Did
TTITLE3=Feels Like Today
TTITLE4=Fast Cars And Freedom
TTITLE5=When The Sand Runs Out
TTITLE6=Here's To You
TTITLE7=The Day Before You
TTITLE8=Break Away
TTITLE9=Holes
TTITLE10=Oklahoma
TTITLE11=Skin
EXTD=
EXTT0=
EXTT1=
EXTT2=
EXTT3=
EXTT4=
EXTT5=
EXTT6=
EXTT7=
EXTT8=
EXTT9=
EXTT10=
EXTT11=
PLAYORDER=
